<?xml version="1.0" encoding="UTF-8"?>
<svg id="BACKGROUND" xmlns="http://www.w3.org/2000/svg" viewBox="0 0 2801 500">
  <defs>
    <style>
      .cls-1 {
        stroke: #008cff;
      }

      .cls-1, .cls-2 {
        fill: none;
        stroke-miterlimit: 10;
        stroke-width: 12px;
      }

      .cls-3 {
        fill: #0f1127;
      }

      .cls-4 {
        fill: #008cff;
      }

      .cls-2 {
        stroke: #0f1127;
      }
    </style>
  </defs>
  <g>
    <rect class="cls-3" x="34.7" y="30.49" width="60.14" height="60.14"/>
    <rect class="cls-4" x="34.7" y="409.37" width="60.14" height="60.14"/>
    <rect class="cls-3" x="412.64" y="409.37" width="60.14" height="60.14"/>
    <rect class="cls-4" x="412.64" y="30.49" width="60.14" height="60.14"/>
    <rect class="cls-3" x="23.87" y="215.65" width="81.81" height="81.81"/>
    <rect class="cls-3" x="212.37" y="19.65" width="81.81" height="81.81"/>
    <rect class="cls-3" x="212.37" y="398.53" width="81.81" height="81.81"/>
    <rect class="cls-3" x="401.8" y="215.65" width="81.81" height="81.81"/>
    <rect class="cls-4" x="185.42" y="190.71" width="131.7" height="131.7"/>
    <line class="cls-2" x1="64.77" y1="256.56" x2="253.27" y2="60.56"/>
    <line class="cls-1" x1="64.77" y1="439.44" x2="442.71" y2="60.56"/>
    <line class="cls-2" x1="253.27" y1="439.44" x2="442.71" y2="256.56"/>
  </g>
  <g>
    <path class="cls-3" d="M706.08,157.44c25.21,0,46.05,8.95,62.54,26.84,16.48,17.9,24.73,39.8,24.73,65.71s-8.24,47.82-24.73,65.71c-16.49,17.9-37.33,26.84-62.54,26.84h-71.4v-185.11h71.4ZM706.08,325.1c20.27,0,36.89-7.23,49.85-21.68,12.96-14.45,19.44-32.26,19.44-53.42s-6.48-38.96-19.44-53.42c-12.96-14.45-29.58-21.68-49.85-21.68h-52.89v150.21h52.89Z"/>
    <path class="cls-3" d="M825.08,157.44h18.51v185.11h-18.51v-185.11Z"/>
    <path class="cls-3" d="M941.44,345.73c-16.92,0-31.43-4.01-43.5-12.03-12.08-8.02-20.49-19.08-25.25-33.19l15.87-9.26c3.35,11.46,9.52,20.41,18.51,26.84,8.99,6.44,20.54,9.65,34.64,9.65s24.46-3.04,32.13-9.12c7.67-6.08,11.5-14.15,11.5-24.2s-3.53-17.01-10.58-21.95c-7.05-4.93-18.69-10.05-34.91-15.34-19.22-6.35-31.91-11.46-38.08-15.34-14.11-8.46-21.16-20.71-21.16-36.76s5.46-28.07,16.4-37.15c10.93-9.08,24.42-13.62,40.46-13.62,14.45,0,26.97,3.75,37.55,11.24,10.58,7.5,18.42,17.06,23.54,28.69l-15.6,8.73c-8.46-20.45-23.63-30.68-45.48-30.68-11.46,0-20.72,2.82-27.77,8.46-7.05,5.64-10.58,13.49-10.58,23.54,0,9.17,3.17,16.04,9.52,20.63,6.35,4.59,16.83,9.26,31.47,14.02,6.7,2.29,11.5,3.93,14.41,4.89,2.91.97,7.14,2.56,12.69,4.76,5.55,2.21,9.65,4.14,12.3,5.82,2.64,1.68,5.86,3.97,9.65,6.88,3.79,2.91,6.52,5.82,8.2,8.73,1.67,2.91,3.17,6.44,4.5,10.58,1.32,4.14,1.98,8.59,1.98,13.35,0,15.69-5.73,28.25-17.19,37.68-11.46,9.43-26.54,14.15-45.22,14.15Z"/>
    <path class="cls-3" d="M1120.73,345.73c-28.03,0-51.21-9.26-69.55-27.77-18.34-18.51-27.5-41.16-27.5-67.96s9.16-49.45,27.5-67.96c18.33-18.51,41.52-27.77,69.55-27.77,17.1,0,32.79,4.1,47.07,12.3,14.28,8.2,25.3,19.26,33.06,33.19l-16.4,9.52c-5.82-11.28-14.46-20.27-25.92-26.97-11.46-6.7-24.06-10.05-37.82-10.05-23.1,0-41.96,7.5-56.59,22.48-14.64,14.99-21.95,33.41-21.95,55.27s7.31,40.29,21.95,55.27c14.63,14.99,33.49,22.48,56.59,22.48,13.75,0,26.35-3.35,37.82-10.05,11.46-6.7,20.1-15.69,25.92-26.97l16.4,9.25c-7.58,13.93-18.56,25.04-32.92,33.32-14.37,8.29-30.11,12.43-47.2,12.43Z"/>
    <path class="cls-3" d="M1231.27,157.44h18.51v185.11h-18.51v-185.11Z"/>
    <path class="cls-3" d="M1358.2,157.44c16.57,0,30.41,5.55,41.52,16.66,11.11,11.11,16.66,24.95,16.66,41.52s-5.55,30.41-16.66,41.52c-11.11,11.11-24.95,16.66-41.52,16.66h-47.6v68.76h-18.51v-185.11h66.11ZM1358.2,256.35c11.46,0,20.93-3.83,28.43-11.5,7.49-7.67,11.24-17.41,11.24-29.22s-3.75-21.55-11.24-29.22c-7.5-7.67-16.97-11.5-28.43-11.5h-47.6v81.45h47.6Z"/>
    <path class="cls-3" d="M1466.62,325.1h84.62v17.45h-103.13v-185.11h18.51v167.66Z"/>
    <path class="cls-3" d="M1596.2,325.1h89.91v17.45h-108.42v-185.11h107.1v17.45h-88.59v65.58h81.98v17.45h-81.98v67.17Z"/>
    <path class="cls-3" d="M1892.37,157.44v185.11h-30.41v-131.96l-56.33,93.08h-3.69s-56.34-93.37-56.34-93.37v132.24h-30.41v-185.11h32.79l55.84,92.54,55.99-92.54h32.56Z"/>
    <path class="cls-3" d="M1959.81,313.47h81.98v29.09h-112.39v-185.11h111.07v29.09h-80.66v48.13h74.04v28.82h-74.04v49.98Z"/>
    <path class="cls-3" d="M2189.87,157.44v29.09h-52.1v156.02h-30.41v-156.02h-52.36v-29.09h134.87Z"/>
    <path class="cls-3" d="M2317.86,342.56l-39.11-67.43h-35.99v67.43h-30.41v-185.11h74.04c16.57,0,30.63,5.78,42.18,17.32,11.54,11.55,17.32,25.61,17.32,42.18,0,11.81-3.4,22.61-10.18,32.39-6.79,9.78-15.65,16.88-26.58,21.29l42.05,71.93h-33.32ZM2242.76,186v61.88h43.63c8.11,0,14.98-3,20.63-8.99,5.64-5.99,8.46-13.31,8.46-21.95s-2.82-15.95-8.46-21.95c-5.64-5.99-12.52-8.99-20.63-8.99h-43.63Z"/>
    <path class="cls-3" d="M2374.45,157.44h30.41v185.11h-30.41v-185.11Z"/>
    <path class="cls-3" d="M2529.42,345.99c-27.86,0-50.95-9.21-69.29-27.63-18.34-18.42-27.5-41.21-27.5-68.36s9.16-49.94,27.5-68.36c18.33-18.42,41.43-27.63,69.29-27.63,16.75,0,32.22,3.97,46.41,11.9,14.19,7.93,25.25,18.69,33.19,32.26l-26.44,15.34c-4.94-9.16-12.12-16.44-21.55-21.82-9.43-5.38-19.97-8.07-31.6-8.07-19.75,0-35.75,6.26-48,18.78-12.26,12.52-18.38,28.39-18.38,47.6s6.12,35.08,18.38,47.6c12.25,12.52,28.25,18.78,48,18.78,11.63,0,22.21-2.69,31.73-8.07,9.52-5.38,16.66-12.65,21.42-21.82l26.44,15.07c-7.76,13.58-18.73,24.38-32.92,32.39-14.19,8.02-29.75,12.03-46.67,12.03Z"/>
    <path class="cls-3" d="M2695.75,345.99c-17.81,0-32.92-4.05-45.35-12.16-12.43-8.11-21.11-19.21-26.05-33.32l26.18-15.34c7.4,20.8,22.74,31.21,46.01,31.21,11.46,0,20.05-2.24,25.78-6.72,5.73-4.48,8.59-10.33,8.59-17.54s-3.09-13.32-9.27-17.28c-6.18-3.96-17.12-8.31-32.83-13.06-8.61-3.2-15.69-5.83-21.24-7.89-5.55-2.06-11.36-5.17-17.45-9.31-6.08-4.14-10.62-9.3-13.62-15.47-3-6.17-4.5-13.4-4.5-21.68,0-16.4,5.82-29.4,17.45-39.01,11.64-9.61,25.65-14.41,42.05-14.41,14.81,0,27.77,3.62,38.87,10.84,11.11,7.23,19.66,17.19,25.65,29.88l-25.65,14.81c-7.76-17.28-20.72-25.92-38.87-25.92-8.82,0-15.87,2.07-21.16,6.21-5.29,4.14-7.93,9.74-7.93,16.79s2.7,12.04,8.11,15.93c5.4,3.88,15.2,7.99,29.39,12.3,6.92,2.61,11.98,4.52,15.2,5.73,3.21,1.21,7.83,2.95,13.84,5.21,6.01,2.26,10.5,4.65,13.48,7.15,2.97,2.5,6.16,5.62,9.57,9.38,3.41,3.75,5.81,8.04,7.21,12.85,1.4,4.82,2.1,10.27,2.1,16.34,0,16.75-6.04,30.01-18.11,39.8-12.08,9.79-27.9,14.68-47.47,14.68Z"/>
  </g>
</svg>